<?xml version="1.0" standalone="no"?>
<!DOCTYPE svg PUBLIC "-//W3C//DTD SVG 20010904//EN"
 "http://www.w3.org/TR/2001/REC-SVG-20010904/DTD/svg10.dtd">
<svg version="1.0" xmlns="http://www.w3.org/2000/svg"
 width="1024.000000pt" height="1024.000000pt" viewBox="0 0 1024.000000 1024.000000"
 preserveAspectRatio="xMidYMid meet">
<metadata>
Created by potrace 1.14, written by Peter Selinger 2001-2017
</metadata>
<g transform="translate(0.000000,1024.000000) scale(0.100000,-0.100000)"
fill="#000000" stroke="none">
<path d="M0 7675 l0 -2565 2295 0 c1262 0 2295 -2 2295 -5 0 -3 -877 -1147
-1948 -2543 -1071 -1395 -1951 -2543 -1956 -2549 -6 -10 99 -13 511 -13 l518
1 1460 1902 1460 1903 3 -1903 2 -1903 480 0 480 0 2 1909 3 1910 1465 -1909
1465 -1909 518 -1 c412 0 517 3 511 13 -5 6 -886 1155 -1958 2552 -1073 1397
-1950 2547 -1950 2555 0 8 877 1158 1950 2555 1072 1397 1953 2546 1958 2553
6 9 -99 12 -511 12 l-518 -1 -1465 -1909 -1465 -1909 -3 1910 -2 1909 -2800 0
-2800 0 0 -2565z m3910 25 l0 -1790 -1585 0 -1585 0 0 1790 0 1790 1585 0
1585 0 0 -1790z"/>
</g>
</svg>
